<?xml version="1.0" encoding="UTF-8"?><svg id="b" xmlns="http://www.w3.org/2000/svg" viewBox="0 0 349.46 349.45"><g id="c"><text transform="translate(174.6 24.64) rotate(1.93)" style="fill:#231f20; font-family:BebasNeue-Regular, &apos;Bebas Neue&apos;; font-size:29.1px;"><tspan x="0" y="0">Z</tspan></text><text transform="translate(184.84 25.02) rotate(5.27)" style="fill:#231f20; font-family:BebasNeue-Regular, &apos;Bebas Neue&apos;; font-size:29.1px;"><tspan x="0" y="0">J</tspan></text><text transform="translate(192.23 25.63) rotate(8.86)" style="fill:#231f20; font-family:BebasNeue-Regular, &apos;Bebas Neue&apos;; font-size:29.1px;"><tspan x="0" y="0">U</tspan></text><text transform="translate(203.42 27.35) rotate(13.2)" style="fill:#231f20; font-family:BebasNeue-Regular, &apos;Bebas Neue&apos;; font-size:29.1px;"><tspan x="0" y="0">U</tspan></text><text transform="translate(214.45 29.96) rotate(17.23)" style="fill:#231f20; font-family:BebasNeue-Regular, &apos;Bebas Neue&apos;; font-size:29.1px;"><tspan x="0" y="0">L</tspan></text><text transform="translate(223.77 32.91) rotate(19.97)" style="fill:#231f20; font-family:BebasNeue-Regular, &apos;Bebas Neue&apos;; font-size:29.1px;"><tspan x="0" y="0"> </tspan></text><text transform="translate(227.93 34.32) rotate(23.01)" style="fill:#231f20; font-family:BebasNeue-Regular, &apos;Bebas Neue&apos;; font-size:29.1px;"><tspan x="0" y="0">R</tspan></text><text transform="translate(238.4 38.75) rotate(27.36)" style="fill:#231f20; font-family:BebasNeue-Regular, &apos;Bebas Neue&apos;; font-size:29.1px;"><tspan x="0" y="0">O</tspan></text><text transform="translate(248.35 43.89) rotate(31.54)" style="fill:#231f20; font-family:BebasNeue-Regular, &apos;Bebas Neue&apos;; font-size:29.1px;"><tspan x="0" y="0">V</tspan></text><text transform="translate(257.54 49.53) rotate(35.55)" style="fill:#231f20; font-family:BebasNeue-Regular, &apos;Bebas Neue&apos;; font-size:29.1px;"><tspan x="0" y="0">E</tspan></text><text transform="translate(265.87 55.44) rotate(39.65)" style="fill:#231f20; font-family:BebasNeue-Regular, &apos;Bebas Neue&apos;; font-size:29.1px;"><tspan x="0" y="0">R</tspan></text><text transform="translate(274.62 62.7) rotate(43.79)" style="fill:#231f20; font-family:BebasNeue-Regular, &apos;Bebas Neue&apos;; font-size:29.1px;"><tspan x="0" y="0">S</tspan></text><text transform="translate(282.22 70.08) rotate(46.64)" style="fill:#231f20; font-family:BebasNeue-Regular, &apos;Bebas Neue&apos;; font-size:29.1px;"><tspan x="0" y="0"> </tspan></text><text transform="translate(285.3 73.33) rotate(48.5)" style="fill:#231f20; font-family:BebasNeue-Regular, &apos;Bebas Neue&apos;; font-size:29.1px;"><tspan x="0" y="0">·</tspan></text><text transform="translate(288.81 77.31) rotate(50.36)" style="fill:#231f20; font-family:BebasNeue-Regular, &apos;Bebas Neue&apos;; font-size:29.1px;"><tspan x="0" y="0"> </tspan></text><text transform="translate(291.69 80.63) rotate(53.37)" style="fill:#231f20; font-family:BebasNeue-Regular, &apos;Bebas Neue&apos;; font-size:29.1px;"><tspan x="0" y="0">U</tspan></text><text transform="translate(298.46 89.7) rotate(57.7)" style="fill:#231f20; font-family:BebasNeue-Regular, &apos;Bebas Neue&apos;; font-size:29.1px;"><tspan x="0" y="0">X</tspan></text><text transform="translate(304.54 99.49) rotate(60.74)" style="fill:#231f20; font-family:BebasNeue-Regular, &apos;Bebas Neue&apos;; font-size:29.1px;"><tspan x="0" y="0"> </tspan></text><text transform="translate(306.78 103.28) rotate(63.79)" style="fill:#231f20; font-family:BebasNeue-Regular, &apos;Bebas Neue&apos;; font-size:29.1px;"><tspan x="0" y="0">D</tspan></text><text transform="translate(311.83 113.56) rotate(67.95)" style="fill:#231f20; font-family:BebasNeue-Regular, &apos;Bebas Neue&apos;; font-size:29.1px;"><tspan x="0" y="0">E</tspan></text><text transform="translate(315.71 123.09) rotate(71.96)" style="fill:#231f20; font-family:BebasNeue-Regular, &apos;Bebas Neue&apos;; font-size:29.1px;"><tspan x="0" y="0">S</tspan></text><text transform="translate(318.92 133.14) rotate(75.01)" style="fill:#231f20; font-family:BebasNeue-Regular, &apos;Bebas Neue&apos;; font-size:29.1px;"><tspan x="0" y="0">I</tspan></text><text transform="translate(320.37 138.25) rotate(78.17)" style="fill:#231f20; font-family:BebasNeue-Regular, &apos;Bebas Neue&apos;; font-size:29.1px;"><tspan x="0" y="0">G</tspan></text><text transform="translate(322.67 149.03) rotate(82.59)" style="fill:#231f20; font-family:BebasNeue-Regular, &apos;Bebas Neue&apos;; font-size:29.1px;"><tspan x="0" y="0">N</tspan></text><text transform="translate(324.14 161.08) rotate(85.73)" style="fill:#231f20; font-family:BebasNeue-Regular, &apos;Bebas Neue&apos;; font-size:29.1px;"><tspan x="0" y="0"> </tspan></text><text transform="translate(324.48 165.57) rotate(87.58)" style="fill:#231f20; font-family:BebasNeue-Regular, &apos;Bebas Neue&apos;; font-size:29.1px;"><tspan x="0" y="0">·</tspan></text><text transform="translate(324.68 170.83) rotate(89.07)" style="fill:#231f20; font-family:BebasNeue-Regular, &apos;Bebas Neue&apos;; font-size:29.1px;"><tspan x="0" y="0"> </tspan></text><text transform="translate(324.81 175.29) rotate(92.09)" style="fill:#231f20; font-family:BebasNeue-Regular, &apos;Bebas Neue&apos;; font-size:29.1px;"><tspan x="0" y="0">F</tspan></text><text transform="translate(324.5 184.95) rotate(96.07)" style="fill:#231f20; font-family:BebasNeue-Regular, &apos;Bebas Neue&apos;; font-size:29.1px;"><tspan x="0" y="0">R</tspan></text><text transform="translate(323.31 196.25) rotate(100.4)" style="fill:#231f20; font-family:BebasNeue-Regular, &apos;Bebas Neue&apos;; font-size:29.1px;"><tspan x="0" y="0">O</tspan></text><text transform="translate(321.32 207.31) rotate(104.86)" style="fill:#231f20; font-family:BebasNeue-Regular, &apos;Bebas Neue&apos;; font-size:29.1px;"><tspan x="0" y="0">N</tspan></text><text transform="translate(318.2 218.98) rotate(109.16)" style="fill:#231f20; font-family:BebasNeue-Regular, &apos;Bebas Neue&apos;; font-size:29.1px;"><tspan x="0" y="0">T</tspan></text><text transform="translate(315.52 226.75) rotate(111.8)" style="fill:#231f20; font-family:BebasNeue-Regular, &apos;Bebas Neue&apos;; font-size:29.1px;"><tspan x="0" y="0">-</tspan></text><text transform="translate(312.75 233.8) rotate(115.22)" style="fill:#231f20; font-family:BebasNeue-Regular, &apos;Bebas Neue&apos;; font-size:29.1px;"><tspan x="0" y="0">E</tspan></text><text transform="translate(308.45 243.05) rotate(119.49)" style="fill:#231f20; font-family:BebasNeue-Regular, &apos;Bebas Neue&apos;; font-size:29.1px;"><tspan x="0" y="0">N</tspan></text><text transform="translate(302.52 253.54) rotate(123.97)" style="fill:#231f20; font-family:BebasNeue-Regular, &apos;Bebas Neue&apos;; font-size:29.1px;"><tspan x="0" y="0">D</tspan></text><text transform="translate(296.01 263.05) rotate(126.99)" style="fill:#231f20; font-family:BebasNeue-Regular, &apos;Bebas Neue&apos;; font-size:29.1px;"><tspan x="0" y="0"> </tspan></text><text transform="translate(293.45 266.62) rotate(130.02)" style="fill:#231f20; font-family:BebasNeue-Regular, &apos;Bebas Neue&apos;; font-size:29.1px;"><tspan x="0" y="0">D</tspan></text><text transform="translate(286.05 275.41) rotate(134.15)" style="fill:#231f20; font-family:BebasNeue-Regular, &apos;Bebas Neue&apos;; font-size:29.1px;"><tspan x="0" y="0">E</tspan></text><text transform="translate(278.95 282.75) rotate(138.13)" style="fill:#231f20; font-family:BebasNeue-Regular, &apos;Bebas Neue&apos;; font-size:29.1px;"><tspan x="0" y="0">V</tspan></text><text transform="translate(270.93 289.95) rotate(142.12)" style="fill:#231f20; font-family:BebasNeue-Regular, &apos;Bebas Neue&apos;; font-size:29.1px;"><tspan x="0" y="0">E</tspan></text><text transform="translate(262.86 296.23) rotate(145.9)" style="fill:#231f20; font-family:BebasNeue-Regular, &apos;Bebas Neue&apos;; font-size:29.1px;"><tspan x="0" y="0">L</tspan></text><text transform="translate(254.97 301.62) rotate(149.86)" style="fill:#231f20; font-family:BebasNeue-Regular, &apos;Bebas Neue&apos;; font-size:29.1px;"><tspan x="0" y="0">O</tspan></text><text transform="translate(245.22 307.29) rotate(154.1)" style="fill:#231f20; font-family:BebasNeue-Regular, &apos;Bebas Neue&apos;; font-size:29.1px;"><tspan x="0" y="0">P</tspan></text><text transform="translate(235.55 312.11) rotate(159.1)" style="fill:#231f20; font-family:BebasNeue-Regular, &apos;Bebas Neue&apos;; font-size:29.1px;"><tspan x="0" y="0">M</tspan></text><text transform="translate(221.29 317.46) rotate(163.98)" style="fill:#231f20; font-family:BebasNeue-Regular, &apos;Bebas Neue&apos;; font-size:29.1px;"><tspan x="0" y="0">E</tspan></text><text transform="translate(211.5 320.33) rotate(168.26)" style="fill:#231f20; font-family:BebasNeue-Regular, &apos;Bebas Neue&apos;; font-size:29.1px;"><tspan x="0" y="0">N</tspan></text><text transform="translate(199.7 322.76) rotate(172.52)" style="fill:#231f20; font-family:BebasNeue-Regular, &apos;Bebas Neue&apos;; font-size:29.1px;"><tspan x="0" y="0">T</tspan></text><text transform="translate(189.42 324.04) rotate(175.33)" style="fill:#231f20; font-family:BebasNeue-Regular, &apos;Bebas Neue&apos;; font-size:29.1px;"><tspan x="0" y="0"> </tspan></text><text transform="translate(184.94 324.41) rotate(177.19)" style="fill:#231f20; font-family:BebasNeue-Regular, &apos;Bebas Neue&apos;; font-size:29.1px;"><tspan x="0" y="0">·</tspan></text><text transform="translate(179.63 324.67) rotate(179.04)" style="fill:#231f20; font-family:BebasNeue-Regular, &apos;Bebas Neue&apos;; font-size:29.1px;"><tspan x="0" y="0"> </tspan></text><text transform="translate(175.22 324.82) rotate(-178.21)" style="fill:#231f20; font-family:BebasNeue-Regular, &apos;Bebas Neue&apos;; font-size:29.1px;"><tspan x="0" y="0">Z</tspan></text><text transform="translate(164.98 324.47) rotate(-174.87)" style="fill:#231f20; font-family:BebasNeue-Regular, &apos;Bebas Neue&apos;; font-size:29.1px;"><tspan x="0" y="0">J</tspan></text><text transform="translate(157.61 323.88) rotate(-171.29)" style="fill:#231f20; font-family:BebasNeue-Regular, &apos;Bebas Neue&apos;; font-size:29.1px;"><tspan x="0" y="0">U</tspan></text><text transform="translate(146.41 322.18) rotate(-166.95)" style="fill:#231f20; font-family:BebasNeue-Regular, &apos;Bebas Neue&apos;; font-size:29.1px;"><tspan x="0" y="0">U</tspan></text><text transform="translate(135.35 319.6) rotate(-162.9)" style="fill:#231f20; font-family:BebasNeue-Regular, &apos;Bebas Neue&apos;; font-size:29.1px;"><tspan x="0" y="0">L</tspan></text><text transform="translate(126.05 316.67) rotate(-160.18)" style="fill:#231f20; font-family:BebasNeue-Regular, &apos;Bebas Neue&apos;; font-size:29.1px;"><tspan x="0" y="0"> </tspan></text><text transform="translate(121.88 315.28) rotate(-157.13)" style="fill:#231f20; font-family:BebasNeue-Regular, &apos;Bebas Neue&apos;; font-size:29.1px;"><tspan x="0" y="0">R</tspan></text><text transform="translate(111.42 310.88) rotate(-152.79)" style="fill:#231f20; font-family:BebasNeue-Regular, &apos;Bebas Neue&apos;; font-size:29.1px;"><tspan x="0" y="0">O</tspan></text><text transform="translate(101.43 305.75) rotate(-148.6)" style="fill:#231f20; font-family:BebasNeue-Regular, &apos;Bebas Neue&apos;; font-size:29.1px;"><tspan x="0" y="0">V</tspan></text><text transform="translate(92.23 300.13) rotate(-144.59)" style="fill:#231f20; font-family:BebasNeue-Regular, &apos;Bebas Neue&apos;; font-size:29.1px;"><tspan x="0" y="0">E</tspan></text><text transform="translate(83.88 294.25) rotate(-140.49)" style="fill:#231f20; font-family:BebasNeue-Regular, &apos;Bebas Neue&apos;; font-size:29.1px;"><tspan x="0" y="0">R</tspan></text><text transform="translate(75.12 287.01) rotate(-136.35)" style="fill:#231f20; font-family:BebasNeue-Regular, &apos;Bebas Neue&apos;; font-size:29.1px;"><tspan x="0" y="0">S</tspan></text><text transform="translate(67.52 279.67) rotate(-133.51)" style="fill:#231f20; font-family:BebasNeue-Regular, &apos;Bebas Neue&apos;; font-size:29.1px;"><tspan x="0" y="0"> </tspan></text><text transform="translate(64.41 276.4) rotate(-131.64)" style="fill:#231f20; font-family:BebasNeue-Regular, &apos;Bebas Neue&apos;; font-size:29.1px;"><tspan x="0" y="0">·</tspan></text><text transform="translate(60.89 272.43) rotate(-129.78)" style="fill:#231f20; font-family:BebasNeue-Regular, &apos;Bebas Neue&apos;; font-size:29.1px;"><tspan x="0" y="0"> </tspan></text><text transform="translate(58 269.12) rotate(-126.77)" style="fill:#231f20; font-family:BebasNeue-Regular, &apos;Bebas Neue&apos;; font-size:29.1px;"><tspan x="0" y="0">U</tspan></text><text transform="translate(51.23 260.09) rotate(-122.45)" style="fill:#231f20; font-family:BebasNeue-Regular, &apos;Bebas Neue&apos;; font-size:29.1px;"><tspan x="0" y="0">X</tspan></text><text transform="translate(45.1 250.29) rotate(-119.4)" style="fill:#231f20; font-family:BebasNeue-Regular, &apos;Bebas Neue&apos;; font-size:29.1px;"><tspan x="0" y="0"> </tspan></text><text transform="translate(42.86 246.51) rotate(-116.35)" style="fill:#231f20; font-family:BebasNeue-Regular, &apos;Bebas Neue&apos;; font-size:29.1px;"><tspan x="0" y="0">D</tspan></text><text transform="translate(37.78 236.24) rotate(-112.19)" style="fill:#231f20; font-family:BebasNeue-Regular, &apos;Bebas Neue&apos;; font-size:29.1px;"><tspan x="0" y="0">E</tspan></text><text transform="translate(33.88 226.73) rotate(-108.19)" style="fill:#231f20; font-family:BebasNeue-Regular, &apos;Bebas Neue&apos;; font-size:29.1px;"><tspan x="0" y="0">S</tspan></text><text transform="translate(30.65 216.68) rotate(-105.13)" style="fill:#231f20; font-family:BebasNeue-Regular, &apos;Bebas Neue&apos;; font-size:29.1px;"><tspan x="0" y="0">I</tspan></text><text transform="translate(29.18 211.58) rotate(-101.98)" style="fill:#231f20; font-family:BebasNeue-Regular, &apos;Bebas Neue&apos;; font-size:29.1px;"><tspan x="0" y="0">G</tspan></text><text transform="translate(26.86 200.82) rotate(-97.56)" style="fill:#231f20; font-family:BebasNeue-Regular, &apos;Bebas Neue&apos;; font-size:29.1px;"><tspan x="0" y="0">N</tspan></text><text transform="translate(25.36 188.77) rotate(-94.42)" style="fill:#231f20; font-family:BebasNeue-Regular, &apos;Bebas Neue&apos;; font-size:29.1px;"><tspan x="0" y="0"> </tspan></text><text transform="translate(25.01 184.28) rotate(-92.56)" style="fill:#231f20; font-family:BebasNeue-Regular, &apos;Bebas Neue&apos;; font-size:29.1px;"><tspan x="0" y="0">·</tspan></text><text transform="translate(24.78 178.94) rotate(-90.93)" style="fill:#231f20; font-family:BebasNeue-Regular, &apos;Bebas Neue&apos;; font-size:29.1px;"><tspan x="0" y="0"> </tspan></text><text transform="translate(24.65 174.54) rotate(-88.05)" style="fill:#231f20; font-family:BebasNeue-Regular, &apos;Bebas Neue&apos;; font-size:29.1px;"><tspan x="0" y="0">F</tspan></text><text transform="translate(24.94 164.87) rotate(-84.07)" style="fill:#231f20; font-family:BebasNeue-Regular, &apos;Bebas Neue&apos;; font-size:29.1px;"><tspan x="0" y="0">R</tspan></text><text transform="translate(26.1 153.59) rotate(-79.75)" style="fill:#231f20; font-family:BebasNeue-Regular, &apos;Bebas Neue&apos;; font-size:29.1px;"><tspan x="0" y="0">O</tspan></text><text transform="translate(28.07 142.5) rotate(-75.27)" style="fill:#231f20; font-family:BebasNeue-Regular, &apos;Bebas Neue&apos;; font-size:29.1px;"><tspan x="0" y="0">N</tspan></text><text transform="translate(31.15 130.87) rotate(-70.99)" style="fill:#231f20; font-family:BebasNeue-Regular, &apos;Bebas Neue&apos;; font-size:29.1px;"><tspan x="0" y="0">T</tspan></text><text transform="translate(33.81 123.06) rotate(-68.35)" style="fill:#231f20; font-family:BebasNeue-Regular, &apos;Bebas Neue&apos;; font-size:29.1px;"><tspan x="0" y="0">-</tspan></text><text transform="translate(36.56 116) rotate(-64.92)" style="fill:#231f20; font-family:BebasNeue-Regular, &apos;Bebas Neue&apos;; font-size:29.1px;"><tspan x="0" y="0">E</tspan></text><text transform="translate(40.83 106.76) rotate(-60.66)" style="fill:#231f20; font-family:BebasNeue-Regular, &apos;Bebas Neue&apos;; font-size:29.1px;"><tspan x="0" y="0">N</tspan></text><text transform="translate(46.73 96.27) rotate(-56.18)" style="fill:#231f20; font-family:BebasNeue-Regular, &apos;Bebas Neue&apos;; font-size:29.1px;"><tspan x="0" y="0">D</tspan></text><text transform="translate(53.24 86.71) rotate(-53.14)" style="fill:#231f20; font-family:BebasNeue-Regular, &apos;Bebas Neue&apos;; font-size:29.1px;"><tspan x="0" y="0"> </tspan></text><text transform="translate(55.79 83.14) rotate(-50.12)" style="fill:#231f20; font-family:BebasNeue-Regular, &apos;Bebas Neue&apos;; font-size:29.1px;"><tspan x="0" y="0">D</tspan></text><text transform="translate(63.14 74.35) rotate(-46)" style="fill:#231f20; font-family:BebasNeue-Regular, &apos;Bebas Neue&apos;; font-size:29.1px;"><tspan x="0" y="0">E</tspan></text><text transform="translate(70.23 66.99) rotate(-42.02)" style="fill:#231f20; font-family:BebasNeue-Regular, &apos;Bebas Neue&apos;; font-size:29.1px;"><tspan x="0" y="0">V</tspan></text><text transform="translate(78.23 59.77) rotate(-38.03)" style="fill:#231f20; font-family:BebasNeue-Regular, &apos;Bebas Neue&apos;; font-size:29.1px;"><tspan x="0" y="0">E</tspan></text><text transform="translate(86.31 53.45) rotate(-34.24)" style="fill:#231f20; font-family:BebasNeue-Regular, &apos;Bebas Neue&apos;; font-size:29.1px;"><tspan x="0" y="0">L</tspan></text><text transform="translate(94.16 48.05) rotate(-30.29)" style="fill:#231f20; font-family:BebasNeue-Regular, &apos;Bebas Neue&apos;; font-size:29.1px;"><tspan x="0" y="0">O</tspan></text><text transform="translate(103.91 42.35) rotate(-26.04)" style="fill:#231f20; font-family:BebasNeue-Regular, &apos;Bebas Neue&apos;; font-size:29.1px;"><tspan x="0" y="0">P</tspan></text><text transform="translate(113.57 37.5) rotate(-21.05)" style="fill:#231f20; font-family:BebasNeue-Regular, &apos;Bebas Neue&apos;; font-size:29.1px;"><tspan x="0" y="0">M</tspan></text><text transform="translate(127.82 32.12) rotate(-16.17)" style="fill:#231f20; font-family:BebasNeue-Regular, &apos;Bebas Neue&apos;; font-size:29.1px;"><tspan x="0" y="0">E</tspan></text><text transform="translate(137.59 29.23) rotate(-11.89)" style="fill:#231f20; font-family:BebasNeue-Regular, &apos;Bebas Neue&apos;; font-size:29.1px;"><tspan x="0" y="0">N</tspan></text><text transform="translate(149.41 26.76) rotate(-7.62)" style="fill:#231f20; font-family:BebasNeue-Regular, &apos;Bebas Neue&apos;; font-size:29.1px;"><tspan x="0" y="0">T</tspan></text><text transform="translate(159.65 25.46) rotate(-4.81)" style="fill:#231f20; font-family:BebasNeue-Regular, &apos;Bebas Neue&apos;; font-size:29.1px;"><tspan x="0" y="0"> </tspan></text><text transform="translate(164.13 25.08) rotate(-2.96)" style="fill:#231f20; font-family:BebasNeue-Regular, &apos;Bebas Neue&apos;; font-size:29.1px;"><tspan x="0" y="0">·</tspan></text></g></svg>