<?xml version="1.0" encoding="utf-8"?>
<!-- Generator: Adobe Illustrator 27.8.0, SVG Export Plug-In . SVG Version: 6.00 Build 0)  -->
<svg version="1.1" id="Layer_1" xmlns="http://www.w3.org/2000/svg" xmlns:xlink="http://www.w3.org/1999/xlink" x="0px" y="0px"
	 viewBox="0 0 429.6 431" style="enable-background:new 0 0 429.6 431;" xml:space="preserve">
<style type="text/css">
	.st0{fill:#252525;stroke:#000000;stroke-miterlimit:10;}
</style>
<path class="st0" d="M214.7,215.6c-49.1,95.8-62.1,176.6-30.4,202.8c5.8,4.8,14.4,8.8,27.6,9.5l0.1-0.1c13.2-0.3,21.9-4.1,27.8-8.7
	C272.1,393.7,261.2,312.6,214.7,215.6z"/>
<path class="st0" d="M214.7,215.4c49.1-95.8,62.1-176.6,30.4-202.8c-5.8-4.8-14.4-8.8-27.6-9.5l-0.1,0.1
	c-13.2,0.3-21.9,4.1-27.8,8.7C157.3,37.3,168.2,118.3,214.7,215.4z"/>
<path class="st0" d="M214.7,215.5c95.8,49.1,176.6,62.1,202.8,30.4c4.8-5.8,8.8-14.4,9.5-27.6l-0.1-0.1c-0.3-13.2-4.1-21.9-8.7-27.8
	C392.8,158.1,311.8,169,214.7,215.5z"/>
<path class="st0" d="M214.5,215.5c-95.8-49.1-176.6-62.1-202.8-30.4C7,190.9,3,199.5,2.3,212.6l0.1,0.1c0.3,13.2,4.1,21.9,8.7,27.8
	C36.4,272.9,117.5,262,214.5,215.5z"/>
</svg>
