<?xml version="1.0" encoding="UTF-8"?><svg id="b" xmlns="http://www.w3.org/2000/svg" viewBox="0 0 162.33 162.36"><g id="c"><path d="m87.01,123.34c.7,0,.94-.47.94-1.29,0-.35-.12-1.05-.12-1.64,0-3.39,6.43-4.68,14.5-4.68,14.03,0,18.71,2.1,18.71,3.39,0,.58-.47,1.29-1.75,1.29-3.74,0-11.34-.35-16.26-.35-17.78,0-21.87,11.7-21.87,23.16s4.94,19.12,15.34,19.12c8.65,0,16-6.49,16-17.25-.12-14.62,2.49,18.02,18.85,17.25,29.84-1.4,46.08-40.86,11.44-34.79-16.7,2.92-21.99-1.75-21.99-3.86,0-.7.58-1.4,1.75-1.4,3.51,0,14.39,1.05,17.89,1.05,16.02,0,21.87-11.46,21.87-23.04s-5.2-19.12-15.61-19.12c-8.65,0-15.73,6.61-15.73,17.25.12,15.32-3.26-17.25-19.28-17.25-8.77,0-14.28,8.48-19.43,32.34-.23,1.4-.82,2.46-1.99,2.46-1.29,0-1.75-.82-1.75-2.11,0-7.25,7.72-19.18,7.72-25.14,0-3.16-1.67-7.54-3.54-7.54-2.81,0-4.06,5.91-4.06,12.1,0,16.37-2.46,26.66-2.46,29,0,.82.23,1.05.82,1.05Z" style="fill:#f8f5f0; stroke-width:0px;"/><path d="m34.67,152.45c-.27-.6-.93-1.04-1.98-1.22C8.59,146.09,0,140.22,0,131.33c0-16.38,40.76-17.99,40.76-27.23,0-1.17-.58-1.99-1.88-1.99-4.56,0-7.01,10.3-21.63,10.41-10.76,0-17.25-6.68-17.25-15.34,0-10.4,7.9-16.01,19.12-16.01s23.16,4.09,23.16,21.87c0,4.92-.35,12.52-.35,16.26,0,1.28.7,1.76,1.29,1.76,1.28,0,3.39-4.68,3.39-18.71,0-8.07-5.81-14.76-4.21-16.14,1.77-1.52,9.97.56,26.66,2.46,6.16.7,9.12,1.88,9.12,4.68,0,1.87-1.41,2.93-4.57,2.93-5.97,0-17.89-7.72-25.15-7.72-1.28,0-2.1.47-2.1,1.76,0,1.17,1.06,1.75,2.46,1.99,23.86,5.14,32.34,11.14,32.34,19.91,0,15.98-40.65,17.62-40.88,26.9l-1.25-.03c.18-4.4,1.01-13.38,1.01-16.5,0-1.17-.7-1.75-1.41-1.75-2.1,0-3.85,5.03-3.85,21.98,0,3.42.36,6.81,1.23,9.23l-1.36.41Z" style="fill:#f8f5f0; stroke-width:0px;"/><path d="m39,140.47c0-.39.02-.86.04-1.4l1.25.03v.08c0,1.06.47,1.87,1.87,1.87,4.68,0,6.43-9.94,21.76-10.06,10.64,0,17.25,7.12,17.25,15.77,0,10.41-7.9,15.57-19.12,15.57-2.5,0-5-.27-7.37-.86.69.03-2.18-1.18-7.15-3.09h0c-2.75-1.84-5.02-4.38-6.53-7.73,0,0,0-.01,0-.02-.13-.34-.28-.7-.44-1.07,0-.02-.01-.05-.02-.06-.96-2.57-1.5-5.56-1.5-9.03Z" style="fill:#f8f5f0; stroke-width:0px;"/><path d="m40.97,150.65c-.15-.35-.3-.7-.44-1.07.16.38.31.73.44,1.07Z" style="fill:#f8f5f0; stroke-width:0px;"/><path d="m41.46,157.43c-2.22-.73-12.75-2.57-29.35-2.57-6.2,0-9.24-1.87-9.24-4.68,0-1.88,1.52-2.81,4.68-2.81,5.84,0,17.89,7.37,25.26,7.37,1.28,0,1.99-.47,1.99-1.64,0-.23-.05-.45-.13-.65l1.36-.41c.77,2.13,1.92,3.52,3.57,3.52.58,0,1.28-.1,1.4-.12l1.52,1.06c1.83.68,3.52,1.32,5.01,1.9h0c2.15,1.44,4.58,2.45,7.15,3.09-.66-.03-4.63-1.22-13.22-4.05Z" style="fill:#f8f5f0; stroke-width:0px;"/><path d="m40.99,155.44c1.32-.53.91-1.38.78-2.19-.14-.86-.43-1.68-.79-2.59,1.51,3.36,3.78,5.89,6.53,7.73-1.49-.58-3.17-1.21-5.01-1.9l-1.52-1.06Z" style="fill:#f8f5f0; stroke-width:0px;"/><path d="m54.67,161.48c-2.58-.64-5.01-1.65-7.15-3.09,4.97,1.91,7.84,3.12,7.15,3.09Z" style="fill:#f8f5f0; stroke-width:0px;"/><path d="m75.32,39.02c-.7,0-.94.47-.94,1.29,0,.35.12,1.05.12,1.64,0,3.39-6.43,4.68-14.5,4.68-14.03,0-18.71-2.1-18.71-3.39,0-.58.47-1.29,1.75-1.29,3.74,0,11.34.35,16.26.35,17.78,0,21.87-11.7,21.87-23.16S76.23.01,65.82.01c-8.65,0-16,6.49-16,17.25C49.94,31.88,47.33-.76,30.97.01,1.14,1.42-15.11,40.87,19.53,34.81c16.7-2.92,21.99,1.75,21.99,3.86,0,.7-.58,1.4-1.75,1.4-3.51,0-14.39-1.05-17.89-1.05C5.85,39.02,0,50.48,0,62.06s5.2,19.12,15.61,19.12c8.65,0,15.73-6.61,15.73-17.25-.12-15.32,3.26,17.25,19.28,17.25,8.77,0,14.28-8.48,19.43-32.34.23-1.4.82-2.46,1.99-2.46,1.29,0,1.75.82,1.75,2.11,0,7.25-7.72,19.18-7.72,25.14,0,3.16,1.67,7.54,3.54,7.54,2.81,0,4.06-5.91,4.06-12.1,0-16.37,2.46-26.66,2.46-29,0-.82-.23-1.05-.82-1.05Z" style="fill:#f8f5f0; stroke-width:0px;"/><path d="m127.66,9.91c.27.6.93,1.04,1.98,1.22,24.09,5.14,32.69,11.02,32.69,19.9,0,16.38-40.76,17.99-40.76,27.23,0,1.17.58,1.99,1.88,1.99,4.56,0,7.01-10.3,21.63-10.41,10.76,0,17.25,6.68,17.25,15.34,0,10.4-7.9,16.01-19.12,16.01s-23.16-4.09-23.16-21.87c0-4.92.35-12.52.35-16.26,0-1.28-.7-1.76-1.29-1.76-1.28,0-3.39,4.68-3.39,18.71,0,8.07,5.81,14.76,4.21,16.14-1.77,1.52-9.97-.56-26.66-2.46-6.16-.7-9.12-1.88-9.12-4.68,0-1.87,1.41-2.93,4.57-2.93,5.97,0,17.89,7.72,25.15,7.72,1.28,0,2.1-.47,2.1-1.76,0-1.17-1.06-1.75-2.46-1.99-23.86-5.14-32.34-11.14-32.34-19.91,0-15.98,40.65-17.62,40.88-26.9l1.25.03c-.18,4.4-1.01,13.38-1.01,16.5,0,1.17.7,1.75,1.41,1.75,2.1,0,3.85-5.03,3.85-21.98,0-3.42-.36-6.81-1.23-9.23l1.36-.41Z" style="fill:#f8f5f0; stroke-width:0px;"/><path d="m123.32,21.88c0,.39-.02.86-.04,1.4l-1.25-.03v-.08c0-1.06-.47-1.87-1.87-1.87-4.68,0-6.43,9.94-21.76,10.06-10.64,0-17.25-7.12-17.25-15.77C81.16,5.17,89.06.01,100.28.01c2.5,0,5,.27,7.37.86-.69-.03,2.18,1.18,7.15,3.09h0c2.75,1.84,5.02,4.38,6.53,7.73,0,0,0,.01,0,.02.13.34.28.7.44,1.07,0,.02.01.05.02.06.96,2.57,1.5,5.56,1.5,9.03Z" style="fill:#f8f5f0; stroke-width:0px;"/><path d="m121.35,11.71c.15.35.3.7.44,1.07-.16-.38-.31-.73-.44-1.07Z" style="fill:#f8f5f0; stroke-width:0px;"/><path d="m120.87,4.92c2.22.73,12.75,2.57,29.35,2.57,6.2,0,9.24,1.87,9.24,4.68,0,1.88-1.52,2.81-4.68,2.81-5.84,0-17.89-7.37-25.26-7.37-1.28,0-1.99.47-1.99,1.64,0,.23.05.45.13.65l-1.36.41c-.77-2.13-1.92-3.52-3.57-3.52-.58,0-1.28.1-1.4.12l-1.52-1.06c-1.83-.68-3.52-1.32-5.01-1.9h0c-2.15-1.44-4.58-2.45-7.15-3.09.66.03,4.63,1.22,13.22,4.05Z" style="fill:#f8f5f0; stroke-width:0px;"/><path d="m121.34,6.91c-1.32.53-.91,1.38-.78,2.19.14.86.43,1.68.79,2.59-1.51-3.36-3.78-5.89-6.53-7.73,1.49.58,3.17,1.21,5.01,1.9l1.52,1.06Z" style="fill:#f8f5f0; stroke-width:0px;"/><path d="m107.65.87c2.58.64,5.01,1.65,7.15,3.09-4.97-1.91-7.84-3.12-7.15-3.09Z" style="fill:#f8f5f0; stroke-width:0px;"/></g></svg>