<?xml version="1.0" encoding="utf-8"?>
<!-- Generator: Adobe Illustrator 27.8.0, SVG Export Plug-In . SVG Version: 6.00 Build 0)  -->
<svg version="1.1" id="Layer_1" xmlns="http://www.w3.org/2000/svg" xmlns:xlink="http://www.w3.org/1999/xlink" x="0px" y="0px"
	 viewBox="0 0 313 313" style="enable-background:new 0 0 313 313;" xml:space="preserve">
<style type="text/css">
	.st0{fill-rule:evenodd;clip-rule:evenodd;fill:#252525;}
	.st1{fill:#252525;}
</style>
<path class="st0" d="M156.5,153.1c0,0-34.9-46.1-43.1-87c-1.9-5.3-3-11.1-3.1-17.1c-0.4-26.7,19.2-48.7,43.8-49
	c24.5-0.3,44.7,21.1,45.1,47.8c0,3.6-0.3,7.2-0.9,10.6C193.8,101,156.5,153.1,156.5,153.1z M156.1,159.9c0,0-33.6,47-40.8,88.1
	c-1.8,5.3-2.7,11.1-2.6,17.2c0.4,26.7,20.5,48.1,45.1,47.8c24.5-0.3,44.1-22.3,43.8-49c0-3.6-0.5-7.2-1.2-10.6
	C194.8,211.1,156.1,159.9,156.1,159.9z M66.1,199.3c40.9-8.2,87-43.1,87-43.1s-52.2-37.3-94.7-41.7c-3.4-0.7-7-1-10.6-0.9
	C21.1,114-0.3,134.1,0,158.7c0.3,24.5,22.3,44.1,49,43.8C55,202.4,60.8,201.3,66.1,199.3z M159.3,156.8c0,0,46.1-34.9,87-43.1
	c5.3-1.9,11.1-3,17.1-3.1c26.7-0.4,48.6,19.2,49,43.8c0.3,24.5-21.1,44.7-47.8,45.1c-3.6,0-7.2-0.3-10.6-0.9
	C211.5,194.1,159.3,156.8,159.3,156.8z"/>
<ellipse transform="matrix(0.7071 -0.7071 0.7071 0.7071 -64.9414 156.2912)" class="st1" cx="156.2" cy="156.5" rx="2.8" ry="70.2"/>
<ellipse transform="matrix(0.7071 -0.7071 0.7071 0.7071 -64.9414 156.2912)" class="st1" cx="156.2" cy="156.5" rx="70.2" ry="2.8"/>
</svg>
