<?xml version="1.0" encoding="utf-8"?>
<!-- Generator: Adobe Illustrator 27.8.0, SVG Export Plug-In . SVG Version: 6.00 Build 0)  -->
<svg version="1.1" id="Layer_1" xmlns="http://www.w3.org/2000/svg" xmlns:xlink="http://www.w3.org/1999/xlink" x="0px" y="0px"
	 viewBox="0 0 298 298" style="enable-background:new 0 0 298 298;" xml:space="preserve">
<style type="text/css">
	.st0{fill-rule:evenodd;clip-rule:evenodd;fill:#252525;}
</style>
<path class="st0" d="M105.2,105C83.8,93.4,60.1,84,39.1,84c-52.4,0-51.9,129.6,0,129.6c20.8,0,44.4-9.2,65.7-20.8
	C93.3,214.2,84,237.8,84,258.6c0,51.9,129.6,52.4,129.6,0c0-20.8-9.3-44.5-20.8-65.8c21.3,11.5,44.9,20.8,65.8,20.8
	c51.9,0,52.4-129.6,0-129.6c-20.7,0-44,9.1-65.2,20.5C204.8,83.3,214,59.8,214,39.1c0-51.9-129.6-52.4-129.6,0
	C84.4,60,93.7,83.7,105.2,105z"/>
</svg>
