<?xml version="1.0" encoding="utf-8"?>
<!-- Generator: Adobe Illustrator 27.8.0, SVG Export Plug-In . SVG Version: 6.00 Build 0)  -->
<svg version="1.1" id="Layer_1" xmlns="http://www.w3.org/2000/svg" xmlns:xlink="http://www.w3.org/1999/xlink" x="0px" y="0px"
	 viewBox="0 0 328 330" style="enable-background:new 0 0 328 330;" xml:space="preserve">
<style type="text/css">
	.st0{fill-rule:evenodd;clip-rule:evenodd;fill:#252525;}
</style>
<path class="st0" d="M58.2,100.8c14.5,0,32.9,4.5,50.4,11.9c-8.2-18.4-13.4-38.4-13.4-53.8c0-36.3,32.6-57.3,64.2-57.3
	c31.6,0,64.2,16.8,64.2,57.3c0,18.1-5.7,39.6-14.7,58.5c20.2-10.1,43.4-16.6,60.7-16.6c36.3,0,57.3,32.6,57.3,64.2
	s-16.8,64.2-57.3,64.2c-18.6,0-40.9-6-60.2-15.4c8.6,18.6,14.1,39.6,14.1,57.3c0,40.5-32.6,57.3-64.2,57.3
	c-31.6,0-64.2-20.9-64.2-57.3c0-15.1,5-34.6,12.9-52.8c-16.6,6.7-34.5,10.9-49.9,10.9c-40.5,0-57.3-32.6-57.3-64.2
	C0.9,133.4,21.9,100.8,58.2,100.8z M209.4,118.5c-26.2,25.1-67.5,25.4-94.1,0.7c25.1,26.2,25.4,67.5,0.7,94.1
	c26.2-25.1,67.5-25.4,94.1-0.7C184.9,186.4,184.6,145.1,209.4,118.5z"/>
</svg>
