<svg viewBox="0 0 313 313" fill="none" xmlns="http://www.w3.org/2000/svg">
<path fill-rule="evenodd" clip-rule="evenodd" d="M159.482 153.697C159.482 153.697 169.491 81.5069 198.612 37.6829C201.622 31.2507 205.782 25.1498 211.083 19.706C234.584 -4.43217 271.6 -6.50986 293.759 15.0653C315.919 36.6405 314.831 73.6985 291.33 97.8367C288.127 101.126 284.673 104.006 281.04 106.472C239.262 140.454 159.482 153.697 159.482 153.697ZM153.118 159.414C153.118 159.414 81.2206 171.348 38.1904 201.63C31.8409 204.811 25.8533 209.133 20.5531 214.577C-2.94843 238.715 -4.03628 275.773 18.1233 297.348C40.283 318.923 77.2987 316.846 100.8 292.708C104.003 289.418 106.79 285.888 109.158 282.19C142.011 239.52 153.118 159.414 153.118 159.414ZM37.6829 114.271C81.5069 143.392 153.697 153.401 153.697 153.401C153.697 153.401 140.454 73.6212 106.472 31.8433C104.006 28.2102 101.126 24.7562 97.8367 21.5533C73.6985 -1.94825 36.6405 -3.0361 15.0653 19.1235C-6.50989 41.2831 -4.4322 78.2988 19.706 101.8C25.1497 107.101 31.2506 111.261 37.6829 114.271ZM158.717 159.482C158.717 159.482 230.907 169.491 274.731 198.612C281.163 201.622 287.264 205.782 292.708 211.083C316.846 234.584 318.923 271.6 297.348 293.759C275.773 315.919 238.715 314.831 214.577 291.33C211.287 288.127 208.407 284.673 205.941 281.04C171.959 239.262 158.717 159.482 158.717 159.482Z" fill="#252525"/>
<ellipse cx="156" cy="156.5" rx="3.5" ry="88.5" fill="#252525"/>
<ellipse cx="155.5" cy="156.5" rx="3.5" ry="88.5" transform="rotate(-90 155.5 156.5)" fill="#252525"/>
<defs>
<radialGradient id="paint0_radial_1_58" cx="0" cy="0" r="1" gradientUnits="userSpaceOnUse" gradientTransform="translate(156 156.5) rotate(90) scale(88.5 3.5)">
<stop stop-color="white"/>
<stop offset="1" stop-color="white" stop-opacity="0"/>
</radialGradient>
<radialGradient id="paint1_radial_1_58" cx="0" cy="0" r="1" gradientUnits="userSpaceOnUse" gradientTransform="translate(155.5 156.5) rotate(90) scale(88.5 3.5)">
<stop stop-color="white"/>
<stop offset="1" stop-color="white" stop-opacity="0"/>
</radialGradient>
</defs>
</svg>
